<?xml version="1.0" standalone="no"?>
<!DOCTYPE svg PUBLIC "-//W3C//DTD SVG 20010904//EN"
 "http://www.w3.org/TR/2001/REC-SVG-20010904/DTD/svg10.dtd">
<svg version="1.0" xmlns="http://www.w3.org/2000/svg"
 width="727.000000pt" height="727.000000pt" viewBox="0 0 727.000000 727.000000"
 preserveAspectRatio="xMidYMid meet">

<g transform="translate(0.000000,727.000000) scale(0.100000,-0.100000)"
fill="#000000" stroke="none">
<path d="M3347 5865 c-22 -7 -50 -24 -64 -37 -33 -31 -76 -116 -102 -205 -12
-40 -23 -73 -25 -73 -2 0 -13 28 -26 63 -56 156 -129 237 -215 237 -92 0 -167
-90 -209 -253 -25 -94 -39 -263 -32 -372 11 -171 127 -1430 141 -1530 l6 -40
110 7 c61 4 113 9 116 12 3 3 0 77 -6 166 -37 515 -78 1210 -74 1237 7 44 29
62 50 40 20 -20 24 -63 69 -836 19 -333 36 -607 38 -608 2 -2 55 -1 117 3
l114 7 -3 91 c-19 580 -39 1293 -37 1301 2 5 6 22 9 36 8 37 32 44 51 16 12
-19 17 -126 30 -628 8 -332 15 -652 15 -711 l0 -108 120 0 121 0 -4 883 c-3
869 -3 883 -25 980 -28 123 -55 194 -91 245 -56 76 -123 103 -194 77z"/>
<path d="M4064 5859 c-42 -12 -114 -91 -147 -161 -35 -74 -73 -219 -86 -333
-8 -66 -40 -1373 -41 -1658 l0 -28 118 3 117 3 7 155 c4 85 19 396 32 690 14
296 30 549 36 567 14 38 34 48 52 26 9 -12 12 -45 10 -117 -3 -117 -59 -1194
-66 -1277 l-5 -56 117 -6 c64 -3 117 -5 118 -4 2 3 27 296 74 880 41 502 50
567 85 567 43 0 42 -13 -61 -1143 -21 -235 -25 -300 -15 -306 13 -9 211 -24
218 -17 5 4 50 370 123 1006 74 632 77 847 16 1016 -44 121 -104 171 -196 162
-28 -3 -60 -15 -79 -29 -40 -30 -93 -112 -128 -201 -14 -38 -28 -67 -30 -65
-1 2 -12 38 -23 81 -24 95 -73 190 -114 221 -37 28 -89 37 -132 24z"/>
<path d="M1975 5741 c-52 -13 -89 -38 -139 -91 -185 -198 -240 -719 -130
-1220 72 -324 197 -585 359 -746 87 -86 158 -119 241 -111 65 7 103 26 153 78
69 73 123 207 157 394 22 122 25 447 5 600 -45 356 -147 668 -286 880 -51 78
-140 167 -194 194 -47 25 -120 34 -166 22z m228 -758 c47 -47 110 -172 138
-279 26 -98 37 -314 20 -394 -27 -132 -88 -207 -159 -196 -167 25 -308 442
-248 727 40 187 142 245 249 142z"/>
<path d="M5387 5685 c-195 -72 -397 -419 -491 -845 -112 -509 -70 -1022 100
-1209 53 -60 100 -81 177 -81 85 0 152 34 237 120 156 158 273 390 350 695 56
221 73 350 74 560 0 254 -31 428 -104 581 -78 163 -206 229 -343 179z m39
-701 c139 -66 151 -447 23 -713 -49 -101 -119 -176 -173 -186 -184 -35 -237
409 -86 720 44 92 100 162 144 181 41 17 51 17 92 -2z"/>
<path d="M903 5501 c-185 -46 -283 -269 -283 -645 0 -175 18 -312 65 -493 115
-441 342 -801 572 -905 66 -31 172 -31 228 -1 170 90 220 378 154 894 l-11 86
-97 -13 c-53 -8 -113 -16 -134 -20 l-38 -6 8 -56 c4 -32 8 -107 8 -167 0 -120
-17 -181 -59 -208 -93 -61 -200 13 -287 198 -61 129 -91 259 -92 395 -1 104 1
120 25 172 30 64 62 90 111 90 73 0 129 -52 198 -184 l40 -77 47 18 c26 10 86
33 133 51 l87 33 -33 96 c-104 306 -209 496 -347 627 -41 38 -94 79 -118 91
-52 24 -132 35 -177 24z"/>
<path d="M6379 5456 c-54 -14 -91 -40 -145 -98 -142 -154 -209 -325 -333 -848
-45 -190 -119 -494 -164 -676 l-83 -331 115 -21 c63 -12 116 -20 117 -19 5 5
192 675 264 947 45 168 89 318 98 334 40 69 85 59 90 -18 3 -50 -109 -464
-276 -1024 -76 -253 -78 -263 -58 -267 113 -26 209 -45 211 -43 7 8 215 649
305 938 133 430 154 527 155 735 0 131 -3 170 -19 218 -43 133 -160 205 -277
173z"/>
<path d="M3920 2451 c-78 -24 -156 -97 -196 -186 -38 -83 -52 -174 -58 -385
-4 -107 -9 -250 -12 -317 l-6 -123 95 0 c105 0 107 1 107 69 0 21 3 59 6 85 6
42 9 46 35 46 32 0 35 6 44 105 3 39 9 85 12 103 5 31 4 32 -31 32 l-36 0 6
63 c8 87 21 131 44 152 26 24 68 13 76 -20 5 -20 -42 -482 -62 -602 l-5 -33
101 0 c97 0 100 1 100 23 0 12 25 164 56 337 49 275 55 326 51 405 -7 133 -42
195 -129 235 -45 20 -148 26 -198 11z"/>
<path d="M3242 2419 c-46 -14 -106 -77 -126 -134 -22 -68 -20 -181 9 -427 26
-225 35 -267 64 -314 47 -76 117 -103 269 -104 l92 0 0 115 0 115 -89 0 c-100
0 -121 10 -121 60 0 40 23 50 114 50 l76 0 0 99 0 99 -81 4 c-87 4 -109 17
-109 64 0 39 36 54 127 54 l83 0 0 165 0 165 -137 -1 c-76 0 -153 -5 -171 -10z"/>
<path d="M2680 2405 c0 -8 32 -166 70 -352 39 -186 69 -349 68 -363 -4 -34
-41 -39 -54 -8 -6 13 -46 182 -90 375 l-79 353 -75 0 c-41 0 -98 -3 -126 -6
l-51 -6 53 -182 c145 -490 157 -536 144 -551 -34 -41 -46 -15 -169 381 l-109
349 -108 -4 c-60 -2 -116 -6 -125 -10 -16 -6 21 -111 257 -724 38 -99 100
-178 165 -211 96 -47 190 -27 226 48 l16 35 44 -44 c118 -118 279 -67 300 96
3 21 -20 213 -53 438 l-58 401 -123 0 c-102 0 -123 -3 -123 -15z"/>
<path d="M4466 2399 c-12 -32 -206 -935 -206 -956 0 -2 44 -2 97 -1 l97 3 18
75 c19 75 113 418 143 518 15 51 17 52 53 52 42 0 82 -23 82 -47 0 -27 -32
-83 -54 -95 -11 -6 -34 -14 -50 -18 -28 -5 -32 -12 -63 -115 -33 -109 -33
-111 -22 -220 16 -172 3 -155 119 -155 l100 0 0 164 0 164 75 75 c85 84 126
161 146 268 24 135 -28 242 -133 274 -30 9 -119 17 -224 21 -144 6 -174 5
-178 -7z"/>
</g>
</svg>
